<svg width="23" height="23" viewBox="0 0 23 23" fill="none" xmlns="http://www.w3.org/2000/svg">
<g clip-path="url(#clip0_32_1055)">
<path fill-rule="evenodd" clip-rule="evenodd" d="M11.5 10.7812C10.309 10.7812 9.34375 9.81597 9.34375 8.625C9.34375 7.43403 10.309 6.46875 11.5 6.46875C12.691 6.46875 13.6562 7.43403 13.6562 8.625C13.6562 9.81597 12.691 10.7812 11.5 10.7812ZM11.5 5.03125C9.51553 5.03125 7.90625 6.63981 7.90625 8.625C7.90625 10.6102 9.51553 12.2188 11.5 12.2188C13.4845 12.2188 15.0938 10.6102 15.0938 8.625C15.0938 6.63981 13.4845 5.03125 11.5 5.03125ZM11.5 20.8438C10.3047 20.8502 4.3125 11.6301 4.3125 8.625C4.3125 4.65606 7.53034 1.4375 11.5 1.4375C15.4697 1.4375 18.6875 4.65606 18.6875 8.625C18.6875 11.5898 12.6766 20.8502 11.5 20.8438ZM11.5 0C6.73684 0 2.875 3.86184 2.875 8.625C2.875 12.2317 10.0661 23.0079 11.5 23C12.9116 23.0079 20.125 12.1828 20.125 8.625C20.125 3.86184 16.2632 0 11.5 0Z" fill="white"/>
</g>
<defs>
<clipPath id="clip0_32_1055">
<rect width="23" height="23" fill="white"/>
</clipPath>
</defs>
</svg>
